<mxfile host="app.diagrams.net" modified="2021-12-09T16:41:12.680Z" agent="5.0 (Macintosh; Intel Mac OS X 10_15_6) AppleWebKit/537.36 (KHTML, like Gecko) Chrome/96.0.4664.55 Safari/537.36" etag="ywpsRjZBdlpsXOgL6fwk" version="15.9.3" type="github">
  <diagram id="E5xBfFjXKruswPAKypPt" name="Page-1">
    <mxGraphModel dx="1033" dy="626" grid="1" gridSize="10" guides="1" tooltips="1" connect="1" arrows="1" fold="1" page="1" pageScale="1" pageWidth="827" pageHeight="1169" math="0" shadow="0">
      <root>
        <mxCell id="0" />
        <mxCell id="1" parent="0" />
        <mxCell id="qf0UW3XAf_jFj8p10U0q-1" value="EKS" style="whiteSpace=wrap;html=1;aspect=fixed;fillColor=#fff2cc;strokeColor=#d6b656;verticalAlign=bottom;" vertex="1" parent="1">
          <mxGeometry x="440" y="50" width="290" height="290" as="geometry" />
        </mxCell>
        <mxCell id="FDzk7kAJ6XmJwjqYeY87-13" style="edgeStyle=orthogonalEdgeStyle;rounded=0;orthogonalLoop=1;jettySize=auto;html=1;exitX=0.5;exitY=0.5;exitDx=0;exitDy=0;exitPerimeter=0;entryX=0;entryY=0;entryDx=0;entryDy=50;fontFamily=Georgia;fontSize=11;fontColor=#990099;startSize=12;endSize=12;strokeColor=#00FF00;entryPerimeter=0;" parent="1" source="FDzk7kAJ6XmJwjqYeY87-1" target="FDzk7kAJ6XmJwjqYeY87-21" edge="1">
          <mxGeometry relative="1" as="geometry">
            <Array as="points">
              <mxPoint x="66" y="330" />
              <mxPoint x="80" y="330" />
              <mxPoint x="80" y="180" />
            </Array>
          </mxGeometry>
        </mxCell>
        <mxCell id="FDzk7kAJ6XmJwjqYeY87-1" value="User" style="shape=umlActor;verticalLabelPosition=bottom;verticalAlign=top;html=1;outlineConnect=0;" parent="1" vertex="1">
          <mxGeometry x="40" y="300" width="30" height="60" as="geometry" />
        </mxCell>
        <mxCell id="FDzk7kAJ6XmJwjqYeY87-14" style="edgeStyle=orthogonalEdgeStyle;rounded=0;orthogonalLoop=1;jettySize=auto;html=1;exitX=1;exitY=0.5;exitDx=0;exitDy=0;fontFamily=Georgia;fontSize=11;fontColor=#990099;startSize=12;endSize=12;strokeColor=#00FF00;entryX=0;entryY=0.5;entryDx=0;entryDy=0;" parent="1" source="FDzk7kAJ6XmJwjqYeY87-4" target="FDzk7kAJ6XmJwjqYeY87-5" edge="1">
          <mxGeometry relative="1" as="geometry">
            <mxPoint x="260" y="120" as="targetPoint" />
            <Array as="points" />
          </mxGeometry>
        </mxCell>
        <mxCell id="FDzk7kAJ6XmJwjqYeY87-4" value="Cloudflare" style="rounded=0;whiteSpace=wrap;html=1;verticalAlign=top;" parent="1" vertex="1">
          <mxGeometry x="144" y="90" width="70" height="220" as="geometry" />
        </mxCell>
        <mxCell id="FDzk7kAJ6XmJwjqYeY87-15" style="edgeStyle=orthogonalEdgeStyle;rounded=0;orthogonalLoop=1;jettySize=auto;html=1;exitX=1;exitY=0.5;exitDx=0;exitDy=0;entryX=0;entryY=0;entryDx=0;entryDy=30;fontFamily=Georgia;fontSize=11;fontColor=#990099;startSize=12;endSize=12;strokeColor=#00FF00;entryPerimeter=0;" parent="1" source="FDzk7kAJ6XmJwjqYeY87-5" target="FDzk7kAJ6XmJwjqYeY87-22" edge="1">
          <mxGeometry relative="1" as="geometry" />
        </mxCell>
        <mxCell id="FDzk7kAJ6XmJwjqYeY87-19" style="edgeStyle=orthogonalEdgeStyle;rounded=0;orthogonalLoop=1;jettySize=auto;html=1;exitX=1;exitY=0.75;exitDx=0;exitDy=0;entryX=0;entryY=0.75;entryDx=0;entryDy=0;fontFamily=Georgia;fontSize=11;fontColor=#990099;startSize=12;endSize=12;strokeColor=#0000FF;startArrow=none;" parent="1" source="FDzk7kAJ6XmJwjqYeY87-22" target="FDzk7kAJ6XmJwjqYeY87-6" edge="1">
          <mxGeometry relative="1" as="geometry" />
        </mxCell>
        <mxCell id="FDzk7kAJ6XmJwjqYeY87-25" style="edgeStyle=orthogonalEdgeStyle;rounded=0;orthogonalLoop=1;jettySize=auto;html=1;exitX=1;exitY=0.75;exitDx=0;exitDy=0;entryX=0;entryY=0;entryDx=0;entryDy=55;entryPerimeter=0;fontFamily=Georgia;fontSize=11;fontColor=#FF8000;startSize=12;endSize=12;strokeColor=#0000FF;" parent="1" source="FDzk7kAJ6XmJwjqYeY87-5" target="FDzk7kAJ6XmJwjqYeY87-22" edge="1">
          <mxGeometry relative="1" as="geometry" />
        </mxCell>
        <mxCell id="FDzk7kAJ6XmJwjqYeY87-5" value="AWS ELB L4" style="rounded=0;whiteSpace=wrap;html=1;verticalAlign=top;" parent="1" vertex="1">
          <mxGeometry x="330" y="90" width="70" height="220" as="geometry" />
        </mxCell>
        <mxCell id="FDzk7kAJ6XmJwjqYeY87-16" style="edgeStyle=orthogonalEdgeStyle;rounded=0;orthogonalLoop=1;jettySize=auto;html=1;exitX=1;exitY=0.5;exitDx=0;exitDy=0;entryX=0;entryY=0.5;entryDx=0;entryDy=0;fontFamily=Georgia;fontSize=11;fontColor=#990099;startSize=12;endSize=12;strokeColor=#00FF00;" parent="1" source="FDzk7kAJ6XmJwjqYeY87-6" target="FDzk7kAJ6XmJwjqYeY87-9" edge="1">
          <mxGeometry relative="1" as="geometry" />
        </mxCell>
        <mxCell id="FDzk7kAJ6XmJwjqYeY87-20" style="edgeStyle=orthogonalEdgeStyle;rounded=0;orthogonalLoop=1;jettySize=auto;html=1;exitX=1;exitY=0.75;exitDx=0;exitDy=0;entryX=0;entryY=0.636;entryDx=0;entryDy=0;fontFamily=Georgia;fontSize=11;fontColor=#990099;startSize=12;endSize=12;strokeColor=#0000FF;entryPerimeter=0;" parent="1" source="FDzk7kAJ6XmJwjqYeY87-6" target="FDzk7kAJ6XmJwjqYeY87-9" edge="1">
          <mxGeometry relative="1" as="geometry">
            <Array as="points">
              <mxPoint x="560" y="230" />
            </Array>
          </mxGeometry>
        </mxCell>
        <mxCell id="FDzk7kAJ6XmJwjqYeY87-6" value="NGINX" style="rounded=0;whiteSpace=wrap;html=1;verticalAlign=top;" parent="1" vertex="1">
          <mxGeometry x="490" y="90" width="70" height="220" as="geometry" />
        </mxCell>
        <mxCell id="FDzk7kAJ6XmJwjqYeY87-7" value="" style="endArrow=none;html=1;rounded=0;fontColor=#FF0000;spacing=5;strokeColor=#FF0000;endSize=12;startSize=12;" parent="1" edge="1">
          <mxGeometry width="50" height="50" relative="1" as="geometry">
            <mxPoint x="300" y="510" as="sourcePoint" />
            <mxPoint x="300" y="30" as="targetPoint" />
          </mxGeometry>
        </mxCell>
        <mxCell id="FDzk7kAJ6XmJwjqYeY87-8" value="- AWS SG Cloudflare-IPs(managed by lambda&lt;br style=&quot;font-size: 10px&quot;&gt;&lt;div style=&quot;font-size: 10px&quot;&gt;&lt;span style=&quot;font-size: 10px&quot;&gt;- AWS SG ELB(managed by LoadBalancer service in k8s, helm)&amp;nbsp;&lt;/span&gt;&lt;/div&gt;" style="text;html=1;strokeColor=none;fillColor=none;align=left;verticalAlign=middle;whiteSpace=wrap;rounded=0;fontColor=#FF0000;fontSize=10;" parent="1" vertex="1">
          <mxGeometry x="305" y="360" width="185" height="50" as="geometry" />
        </mxCell>
        <mxCell id="FDzk7kAJ6XmJwjqYeY87-9" value="PLATFORM" style="rounded=0;whiteSpace=wrap;html=1;verticalAlign=top;" parent="1" vertex="1">
          <mxGeometry x="609.5" y="90" width="70" height="220" as="geometry" />
        </mxCell>
        <mxCell id="FDzk7kAJ6XmJwjqYeY87-10" value="" style="endArrow=none;html=1;rounded=0;fontColor=#990099;spacing=5;strokeColor=#990099;endSize=12;startSize=12;" parent="1" edge="1">
          <mxGeometry width="50" height="50" relative="1" as="geometry">
            <mxPoint x="525" y="510" as="sourcePoint" />
            <mxPoint x="525" y="30" as="targetPoint" />
          </mxGeometry>
        </mxCell>
        <mxCell id="FDzk7kAJ6XmJwjqYeY87-11" value="- Ingress controller configmap(allowed for 0.0.0.0/0)&lt;br&gt;- Ingress objects annotations to restrict the access for IPs recieved by header&amp;nbsp;&lt;span style=&quot;font-family: monospace, monospace; background-color: rgb(247, 247, 247);&quot;&gt;&lt;font style=&quot;font-size: 11px&quot;&gt;CF-Connecting-IP&lt;/font&gt;&lt;/span&gt;" style="text;html=1;strokeColor=none;fillColor=none;align=left;verticalAlign=middle;whiteSpace=wrap;rounded=0;fontColor=#990099;fontSize=10;" parent="1" vertex="1">
          <mxGeometry x="532" y="365" width="225" height="50" as="geometry" />
        </mxCell>
        <mxCell id="FDzk7kAJ6XmJwjqYeY87-18" style="edgeStyle=orthogonalEdgeStyle;rounded=0;orthogonalLoop=1;jettySize=auto;html=1;exitX=0.5;exitY=0.5;exitDx=0;exitDy=0;exitPerimeter=0;entryX=0;entryY=0.75;entryDx=0;entryDy=0;fontFamily=Georgia;fontSize=11;fontColor=#990099;startSize=12;endSize=12;strokeColor=#0000FF;startArrow=none;" parent="1" source="qf0UW3XAf_jFj8p10U0q-4" target="FDzk7kAJ6XmJwjqYeY87-5" edge="1">
          <mxGeometry relative="1" as="geometry">
            <Array as="points">
              <mxPoint x="259" y="255" />
            </Array>
          </mxGeometry>
        </mxCell>
        <mxCell id="qf0UW3XAf_jFj8p10U0q-6" style="edgeStyle=orthogonalEdgeStyle;rounded=0;orthogonalLoop=1;jettySize=auto;html=1;exitX=0.5;exitY=0.5;exitDx=0;exitDy=0;exitPerimeter=0;entryX=0.5;entryY=1;entryDx=0;entryDy=0;fontColor=#0000CC;strokeColor=#0000FF;strokeWidth=1;startSize=10;endSize=10;" edge="1" parent="1" source="FDzk7kAJ6XmJwjqYeY87-17" target="qf0UW3XAf_jFj8p10U0q-4">
          <mxGeometry relative="1" as="geometry" />
        </mxCell>
        <mxCell id="FDzk7kAJ6XmJwjqYeY87-17" value="Office/VPN user" style="shape=umlActor;verticalLabelPosition=bottom;verticalAlign=top;html=1;outlineConnect=0;" parent="1" vertex="1">
          <mxGeometry x="70" y="420" width="30" height="60" as="geometry" />
        </mxCell>
        <mxCell id="FDzk7kAJ6XmJwjqYeY87-21" value="&lt;font color=&quot;#ff8000&quot;&gt;CF Certificate&lt;/font&gt;" style="shape=card;whiteSpace=wrap;html=1;fontFamily=Georgia;fontSize=11;fontColor=#990099;strokeColor=#FF8000;" parent="1" vertex="1">
          <mxGeometry x="110" y="170" width="64" height="80" as="geometry" />
        </mxCell>
        <mxCell id="FDzk7kAJ6XmJwjqYeY87-22" value="&lt;font color=&quot;#ff8000&quot;&gt;LetsEncrypt Certificate&lt;/font&gt;" style="shape=card;whiteSpace=wrap;html=1;fontFamily=Georgia;fontSize=11;fontColor=#990099;strokeColor=#FF8000;" parent="1" vertex="1">
          <mxGeometry x="459" y="170" width="64" height="80" as="geometry" />
        </mxCell>
        <mxCell id="FDzk7kAJ6XmJwjqYeY87-26" value="&lt;font color=&quot;#000000&quot;&gt;cyber.bet&lt;/font&gt;" style="text;html=1;strokeColor=none;fillColor=none;align=center;verticalAlign=middle;whiteSpace=wrap;rounded=0;fontFamily=Georgia;fontSize=11;fontColor=#FF8000;" parent="1" vertex="1">
          <mxGeometry x="72" y="322" width="60" height="30" as="geometry" />
        </mxCell>
        <mxCell id="FDzk7kAJ6XmJwjqYeY87-27" value="&lt;font color=&quot;#000000&quot;&gt;*.prod.clusters.cyber.bet&lt;/font&gt;" style="text;html=1;strokeColor=none;fillColor=none;align=center;verticalAlign=middle;whiteSpace=wrap;rounded=0;fontFamily=Georgia;fontSize=11;fontColor=#FF8000;" parent="1" vertex="1">
          <mxGeometry x="149" y="427" width="60" height="30" as="geometry" />
        </mxCell>
        <mxCell id="qf0UW3XAf_jFj8p10U0q-4" value="VPN Server" style="rounded=0;whiteSpace=wrap;html=1;fontColor=#000000;" vertex="1" parent="1">
          <mxGeometry x="230" y="340" width="58" height="60" as="geometry" />
        </mxCell>
      </root>
    </mxGraphModel>
  </diagram>
</mxfile>
